# xmcd CD database file
# Copyright (C) 1996 Ti Kan
#
# Track frame offsets:
# 	182
# 	17787
# 	31520
# 	51462
# 	74965
# 	97170
# 	114440
# 	132395
#
# Disc length: 2002 seconds
#
# Revision: 1
# Processed by: cddbd v1.4b41PL1 Copyright (c) Steve Scherf et al.
# Submitted via: DiscPlay 3.4.1
#
DISCID=7407d008
DTITLE=The Marshall Tucker Band - Long Hard Ride
DYEAR=1900
DGENRE=
TTITLE0=Long Hard Ride
TTITLE1=Property Line
TTITLE2=Am I The Kind Of Man
TTITLE3=Walkin' The Streets Alone
TTITLE4=Windy City Blues
TTITLE5=Holding On To You
TTITLE6=You Say You Love Me
TTITLE7=You Don't Live Forever
EXTD=
EXTT0=
EXTT1=
EXTT2=
EXTT3=
EXTT4=
EXTT5=
EXTT6=
EXTT7=
PLAYORDER=
